# xmcd
#
# Track frame offsets:
#	150
#	9320
#	27089
#	45712
#	65291
#	87080
#	105864
#	128385
#	148527
#	167513
#	190215
#
# Disc length: 2742 seconds
#
# Revision: 0
# Processed by: cddbd v1.5.1PL0 Copyright (c) Steve Scherf et al.
# Submitted via: dBpowerAMP V4.0
#
DISCID=770ab40b
DTITLE=Tyrone Davis - The Legendary Hall Of Famer
DYEAR=2004
DGENRE=Blues
TTITLE0=The Legendary Hall Of Famer (Intro)
TTITLE1=Get Your Groove On
TTITLE2=Anyway
TTITLE3=Try My Love
TTITLE4=Hot Spot
TTITLE5=Can I Stop By
TTITLE6=Handle Your Buisness
TTITLE7=Let's Stay Together
TTITLE8=Stepper's Holiday
TTITLE9=Who's Loving You Now
TTITLE10=Suspicious Minds
EXTD=
EXTT0=
EXTT1=
EXTT2=
EXTT3=
EXTT4=
EXTT5=
EXTT6=
EXTT7=
EXTT8=
EXTT9=
EXTT10=
PLAYORDER=
